<svg width="319" height="133" viewBox="0 0 319 133" fill="none" xmlns="http://www.w3.org/2000/svg">
<circle cx="66.5" cy="66.5" r="66.5" fill="#192CD7"/>
<rect x="31.92" y="48.0278" width="7.38889" height="36.9444" fill="#C1E297"/>
<rect x="17.1422" y="68.4209" width="7.38889" height="36.9444" transform="rotate(-90 17.1422 68.4209)" fill="#C1E297"/>
<path d="M72.1393 75.6798L80.4734 48.0256H88.9086L76.1043 84.7969H68.1995L55.4457 48.0256H63.8556L72.1393 75.6798ZM114.517 68.861H99.9703V78.7104H117.043V84.7969H92.3938V48.0256H116.992V54.1626H99.9703V62.9261H114.517V68.861Z" fill="#C1E297"/>
<path d="M157.75 75.8829L166.085 48.2287H174.52L161.715 85H153.811L141.057 48.2287H149.467L157.75 75.8829ZM186.061 85H178.485V48.2287H186.061V85ZM193.107 85V48.2287H205.987C210.449 48.2287 213.833 49.0874 216.14 50.8047C218.447 52.5052 219.6 55.0055 219.6 58.3055C219.6 60.107 219.137 61.6981 218.211 63.0787C217.285 64.4424 215.997 65.4442 214.347 66.084C216.233 66.5554 217.714 67.5067 218.792 68.9378C219.886 70.3689 220.433 72.12 220.433 74.1909C220.433 77.7266 219.305 80.4036 217.049 82.222C214.793 84.0403 211.577 84.9663 207.402 85H193.107ZM200.684 68.9883V78.9135H207.174C208.959 78.9135 210.348 78.4926 211.341 77.6508C212.352 76.7921 212.857 75.6136 212.857 74.1151C212.857 70.7478 211.114 69.0388 207.629 68.9883H200.684ZM200.684 63.6343H206.29C210.112 63.5669 212.023 62.0432 212.023 59.0631C212.023 57.3963 211.535 56.2009 210.559 55.4769C209.599 54.7361 208.075 54.3657 205.987 54.3657H200.684V63.6343ZM248.264 69.0641H233.717V78.9135H250.79V85H226.141V48.2287H250.739V54.3657H233.717V63.1292H248.264V69.0641ZM274.302 75.3526C274.302 73.9215 273.797 72.8271 272.787 72.0694C271.777 71.295 269.958 70.4868 267.332 69.645C264.705 68.7863 262.626 67.9445 261.094 67.1195C256.918 64.8634 254.831 61.8243 254.831 58.0024C254.831 56.0157 255.386 54.2478 256.497 52.6989C257.625 51.1331 259.233 49.9124 261.321 49.0369C263.426 48.1614 265.783 47.7236 268.393 47.7236C271.019 47.7236 273.359 48.2035 275.413 49.1632C277.467 50.106 279.059 51.4445 280.187 53.1787C281.331 54.9129 281.904 56.8828 281.904 59.0884H274.327C274.327 57.4047 273.797 56.0999 272.736 55.1739C271.676 54.231 270.186 53.7596 268.266 53.7596C266.414 53.7596 264.975 54.1552 263.948 54.9466C262.921 55.721 262.407 56.7481 262.407 58.0277C262.407 59.2231 263.005 60.2249 264.2 61.033C265.412 61.8412 267.189 62.5988 269.529 63.306C273.839 64.6024 276.979 66.2103 278.949 68.1297C280.919 70.049 281.904 72.4399 281.904 75.3021C281.904 78.4842 280.7 80.9845 278.292 82.8028C275.885 84.6043 272.644 85.5051 268.569 85.5051C265.741 85.5051 263.165 84.9916 260.841 83.9645C258.518 82.9207 256.742 81.498 255.512 79.6965C254.3 77.8949 253.694 75.8072 253.694 73.4332H261.296C261.296 77.4908 263.72 79.5197 268.569 79.5197C270.371 79.5197 271.777 79.1577 272.787 78.4337C273.797 77.6929 274.302 76.6659 274.302 75.3526Z" fill="#192CD7"/>
</svg>
